<?xml version="1.0" encoding="UTF-8" standalone="no"?>
<svg
   xmlns:dc="http://purl.org/dc/elements/1.1/"
   xmlns:cc="http://creativecommons.org/ns#"
   xmlns:rdf="http://www.w3.org/1999/02/22-rdf-syntax-ns#"
   xmlns:svg="http://www.w3.org/2000/svg"
   xmlns="http://www.w3.org/2000/svg"
   xmlns:sodipodi="http://sodipodi.sourceforge.net/DTD/sodipodi-0.dtd"
   xmlns:inkscape="http://www.inkscape.org/namespaces/inkscape"
   width="53"
   height="52"
   viewBox="-10 -10 53 52"
   version="1.1"
   id="svg8"
   sodipodi:docname="logo.svg"
   inkscape:version="0.92.4 (5da689c313, 2019-01-14)"
   inkscape:export-filename="C:\Users\suraj\Documents\GitHub\SurajRPawar-Website\assets\logos\logo@1024px.png"
   inkscape:export-xdpi="6142.127"
   inkscape:export-ydpi="6142.127">
  <metadata
     id="metadata14">
    <rdf:RDF>
      <cc:Work
         rdf:about="">
        <dc:format>image/svg+xml</dc:format>
        <dc:type
           rdf:resource="http://purl.org/dc/dcmitype/StillImage" />
        <dc:title />
      </cc:Work>
    </rdf:RDF>
  </metadata>
  <defs
     id="defs12" />
  <sodipodi:namedview
     pagecolor="#ffffff"
     bordercolor="#666666"
     borderopacity="1"
     objecttolerance="10"
     gridtolerance="10"
     guidetolerance="10"
     inkscape:pageopacity="0"
     inkscape:pageshadow="2"
     inkscape:window-width="3840"
     inkscape:window-height="1973"
     id="namedview10"
     showgrid="false"
     inkscape:zoom="12.836708"
     inkscape:cx="-19.525554"
     inkscape:cy="28.429293"
     inkscape:window-x="-18"
     inkscape:window-y="-18"
     inkscape:window-maximized="1"
     inkscape:current-layer="svg8" />
  <text
     xml:space="preserve"
     style="font-style:normal;font-weight:normal;font-size:14.93866348px;line-height:1.25;font-family:sans-serif;letter-spacing:0px;word-spacing:0px;fill:#000000;fill-opacity:1;stroke:none;stroke-width:0.37346658"
     x="12.635798"
     y="13.532811"
     id="text18"><tspan
       sodipodi:role="line"
       id="tspan16"
       x="12.635798"
       y="27.161806"
       style="stroke-width:0.37346658" /></text>
  <circle
     id="path26"
     cx="16.116926"
     cy="15.339126"
     r="19.892773"
     style="stroke-width:0.93366617" />
  <path
     style="fill:none;stroke-width:0.07273408"
     d="M 14.724516,35.150615 C 9.8212945,34.76488 5.4786885,32.770953 2.0660405,29.338424 0.99500152,28.261144 0.38974752,27.521067 -0.43886738,26.275535 -3.229791,22.080356 -4.3020872,17.002067 -3.4539844,11.996239 -2.1389551,4.2344282 3.7289915,-2.068323 11.378749,-3.935572 c 1.611757,-0.393418 2.398502,-0.492158 4.254944,-0.534005 1.863106,-0.042 2.984426,0.0516 4.609883,0.384793 2.836977,0.581534 5.919566,2.044221 8.298063,3.93742297 0.878397,0.699175 2.356124,2.17869203 3.071526,3.07525403 5.245919,6.5743168 5.799532,15.724639 1.383408,22.865564 -1.14636,1.85368 -3.201554,4.110242 -4.894117,5.373639 -2.491564,1.859807 -5.153118,3.052274 -8.141087,3.647486 -1.606227,0.319967 -3.718342,0.455495 -5.236853,0.336033 z"
     id="path4542"
     inkscape:connector-curvature="0" />
  <path
     style="fill:#f9f9f9;stroke-width:0.07273408"
     d="M 14.724516,35.150615 C 9.8212945,34.76488 5.4786885,32.770953 2.0660405,29.338424 0.99500152,28.261144 0.38974752,27.521067 -0.43886738,26.275535 -3.229791,22.080356 -4.3020872,17.002067 -3.4539844,11.996239 -2.1389551,4.2344282 3.7289915,-2.068323 11.378749,-3.935572 c 1.611757,-0.393418 2.398502,-0.492158 4.254944,-0.534005 1.863106,-0.042 2.984426,0.0516 4.609883,0.384793 2.836977,0.581534 5.919566,2.044221 8.298063,3.93742297 0.878397,0.699175 2.356124,2.17869203 3.071526,3.07525403 5.245919,6.5743168 5.799532,15.724639 1.383408,22.865564 -1.14636,1.85368 -3.201554,4.110242 -4.894117,5.373639 -2.491564,1.859807 -5.153118,3.052274 -8.141087,3.647486 -1.606227,0.319967 -3.718342,0.455495 -5.236853,0.336033 z"
     id="path4544"
     inkscape:connector-curvature="0" />
  <path
     style="fill:#ffffff;stroke:#120a00;stroke-width:0.4462924;stroke-miterlimit:4;stroke-dasharray:none;stroke-opacity:1"
     d="M 14.142643,35.067462 C 10.152037,34.608362 6.7111895,33.177595 3.5962005,30.682061 2.8274285,30.066169 1.1691495,28.391031 0.60205752,27.657482 -1.1445366,25.398208 -2.4911802,22.659961 -3.1236951,20.081592 -3.486108,18.604259 -3.6140804,17.60136 -3.6564688,15.906333 -3.7221488,13.279891 -3.4116989,11.168527 -2.6296179,8.9227675 -1.035643,4.3456431 2.1287315,0.52832197 6.3237295,-1.878035 c 1.915839,-1.098978 4.3671675,-1.969689 6.6551685,-2.363917 1.065715,-0.183625 4.487866,-0.227025 5.673259,-0.07193 3.462324,0.45297 6.931975,1.914267 9.746367,4.10483697 0.816192,0.63528 2.526819,2.34409103 3.213089,3.20967903 2.311397,2.9153569 3.709412,6.2738088 4.175014,10.029652 0.151649,1.223253 0.1498,3.550754 -0.0038,4.699001 -0.327277,2.447585 -0.867087,4.238877 -1.928837,6.400599 -0.977047,1.989269 -2.119214,3.545911 -3.924226,5.348278 -3.709827,3.704387 -8.675897,5.704391 -14.057668,5.661498 -0.651195,-0.0053 -1.429472,-0.03767 -1.729503,-0.0722 z"
     id="path4546"
     inkscape:connector-curvature="0" />
  <text
     xml:space="preserve"
     style="font-style:normal;font-weight:normal;font-size:19.83660126px;line-height:1.25;font-family:sans-serif;letter-spacing:0px;word-spacing:0px;fill:#05bf85;fill-opacity:1;stroke:none;stroke-width:0.49591503"
     x="8.6751871"
     y="22.823616"
     id="text4550"
     transform="scale(1.033299,0.96777409)"><tspan
       sodipodi:role="line"
       id="tspan4548"
       x="8.6751871"
       y="22.823616"
       style="fill:#05bf85;fill-opacity:1;stroke-width:0.49591503">S</tspan></text>
</svg>
